<svg width="667" height="80" viewBox="0 0 667 80" fill="none" xmlns="http://www.w3.org/2000/svg">
<g clip-path="url(#clip0_974:1497)">
<path d="M47.0903 64.8829V48.2943H32.9097V64.8829H22.0736L35.1839 77.9933C37.8595 80.6689 42.1405 80.6689 44.6823 77.9933L57.7926 64.8829H47.0903ZM15.1171 57.7926V22.0736L2.00669 35.1839C-0.668896 37.8595 -0.668896 42.1405 2.00669 44.6823L15.1171 57.7926ZM32.9097 15.1171V31.7057H47.0903V15.1171H57.9264L44.8161 2.00669C42.1405 -0.668896 37.8595 -0.668896 35.3177 2.00669L22.2074 15.1171H32.9097ZM77.9933 35.1839L64.8829 22.0736V57.7926L77.9933 44.6823C80.6689 42.1405 80.6689 37.8595 77.9933 35.1839Z" fill="#D82D27"/>
<path d="M157.592 15.1172V64.8831H135.786L122.943 27.0235H122.14V64.8831H108.896V28.0938H101.806V15.1172H126.823C129.231 15.1172 131.237 16.455 131.906 18.7292L143.411 53.1105H144.214V15.1172H157.592Z" fill="#D82D27"/>
<path d="M164.95 39.8663C164.95 25.4181 176.455 14.3145 191.171 14.3145C205.886 14.3145 217.124 25.4181 217.124 39.8663C217.124 54.4482 205.752 65.5519 191.171 65.5519C176.321 65.5519 164.95 54.4482 164.95 39.8663ZM202.676 39.8663C202.676 33.1773 197.592 28.0937 191.171 28.0937C184.482 28.0937 179.398 33.1773 179.398 39.8663C179.398 46.689 184.482 51.9064 191.171 51.9064C197.592 51.9064 202.676 46.689 202.676 39.8663Z" fill="#D82D27"/>
<path d="M217.391 15.1172H232.508L245.351 52.174H246.154L259.13 15.1172H273.98L255.786 64.8831H235.452L217.391 15.1172Z" fill="#D82D27"/>
<path d="M305.017 55.7861H284.95L281.739 64.8831H267.023L286.421 15.1172H304.214L323.478 64.8831H308.227L305.017 55.7861ZM301.271 44.5486L295.518 27.8262H294.716L288.963 44.5486H301.271Z" fill="#D82D27"/>
<path d="M396.254 31.572C396.254 41.6055 388.896 48.0269 377.793 48.0269H364.95V64.8831H350.769V28.0938H343.813V15.1172H377.926C389.03 15.1172 396.254 21.4048 396.254 31.572ZM381.94 31.8396C381.94 29.164 379.933 27.4249 376.99 27.4249H365.217V36.3881H376.99C379.933 36.2543 381.94 34.5152 381.94 31.8396Z" fill="#D82D27"/>
<path d="M401.07 39.8663C401.07 25.4181 412.575 14.3145 427.291 14.3145C442.007 14.3145 453.244 25.4181 453.244 39.8663C453.244 54.4482 441.873 65.5519 427.291 65.5519C412.575 65.5519 401.07 54.4482 401.07 39.8663ZM438.93 39.8663C438.93 33.1773 433.846 28.0937 427.425 28.0937C420.736 28.0937 415.652 33.1773 415.652 39.8663C415.652 46.689 420.736 51.9064 427.425 51.9064C433.712 51.9064 438.93 46.689 438.93 39.8663Z" fill="#D82D27"/>
<path d="M458.194 49.2309H472.91C474.114 52.174 477.324 53.6456 482.274 53.6456C487.625 53.6456 490.435 52.174 490.435 50.0335C490.435 47.358 487.893 46.4215 479.465 45.6188C466.488 44.281 459.398 38.261 459.398 29.6991C459.398 20.6021 468.227 14.582 481.338 14.582C494.716 14.582 503.411 20.8697 505.017 31.0369H489.097C488.161 28.3613 485.485 26.8897 481.204 26.8897C475.853 26.8897 473.846 28.2275 473.846 30.2342C473.846 32.3747 476.388 33.1773 483.345 33.8462C497.391 35.184 504.883 40.669 504.883 50.0335C504.883 59.7994 495.385 65.8195 481.739 65.8195C469.03 65.5519 460.067 59.5319 458.194 49.2309Z" fill="#D82D27"/>
<path d="M559.197 15.1172V64.8831H545.017V46.6891H527.358V64.8831H513.177V15.1172H527.358V33.3112H545.017V15.1172H559.197Z" fill="#D82D27"/>
<path d="M614.314 29.0302H597.592V64.8831H583.278V29.0302H566.555V15.1172H614.314V29.0302Z" fill="#D82D27"/>
<path d="M648.428 55.7861H628.227L625.017 64.8831H610.301L629.699 15.1172H647.492L666.756 64.8831H651.505L648.428 55.7861ZM644.548 44.5486L638.796 27.8262H637.993L632.107 44.5486H644.548Z" fill="#D82D27"/>
</g>
<defs>
<clipPath id="clip0_974:1497">
<rect width="666.756" height="80" fill="white"/>
</clipPath>
</defs>
</svg>
